<?xml version="1.0" encoding="UTF-8"?>
<svg version="1.1" viewBox="0 0 1600 1097" width="1280" height="1280" xmlns="http://www.w3.org/2000/svg">
<path transform="translate(0)" d="m0 0h1600v1097h-1600z" fill="#F3F5F6"/>
<path transform="translate(1312,848)" d="m0 0h227l7 6 2 3v63h-2l-2 4-4 3h-2l9 9v65l-7 6-3 2 8 4 2 3v47l-3-4-7-8-6-3-2-6-3-7-4-7-7-5v-2l-6-1v-2l-15-1-11 2v2l-3 2h-3v2l-7 6-13 2-8 7-5 8-6 5-5 9v15l5 9 10 1-6-8-2-4v-10l3-6 8-7 3-6 8-7h7l5 2 2-5 7-7 9-4h10l10 4 7 7 3 6 1 5v7l5 1 6 3 5 6 1 3v9l-5 8-1 1 8 1 58 1v10h-1600v-207l6-2 6 5h14l37-5 5 3 5 9 3 11 1 9 2 59 1 3 1-107 4-6 2-1h218l6 6 1 95 1-2 2-49 3-12 5-9 5-5 6-1 18 4 8 2h35l12-1 9-4 14-2 10 1 2 1v3l2-5 681-1-7-2-15-1-35 1-134 1-45-1h-40l-10-1h-79l-85 1h-52l-87 1-5 1h-25l-35-2-18-3 1-2 15-4 16-1 17-3 4-2 16-4 11 1 10 3 28 1 25 2 10-2h8l4 3 6 1 9-3 6-1 25 1 3 1h41l11-1h28l8-1h7l7 2 12 2 9 1 30 1 15 2h7l9-3 23-5 14 1h26l17-2 2-1h10l10 2 26 2 20 1 15-2 15 1 7-1 24 1 4-1 4 1 8 1h7l8 2 14 1h11l11-4 6-1v-8l1-2 5 1 2 1v2l4 2 20 20 4 2 4-6 5-1 10 1h21l13 2 16 3 2 1h11l13-3 16-1h8l6 3 4 9 3 19 5 9-2 4-3 8v17l1-19 6-7 3-2v-2l-7-6-1-2v-61l4-6z" fill="#CDCCCE"/>
<path transform="translate(0)" d="m0 0h1600v72l-8 1-20-2h-111l-487-1-5-3-2-7h-1l-1 10h-46v128h-20v-127l-4 1 2 5-2 19-3 5-10 7h-20l-21-6-3-3v-19h-2v8l-3 9-12 50-5 21-4 15-3 13-1 1h-18l-6-23-7-23-14-50-3-12v-5h-2l-1 9-8 29-9 31-7 24-6 20h-19l-6-25-11-46-13-53-4-16-2 11-3 2-9-1-3-3-2-5-1 99-4 15-7 11-10 8-10 4-5 1h-22l-11-3-7-4-9-8-4-8-3-11v-7h19l3 12 4 7 7 4 5 2h12l9-3 7-6 4-9v-106l-4 10-8 3-16 1-14-1-25-1h-565z" fill="#A6A7A9"/>
<path transform="translate(1572,415)" d="m0 0h7l10 5 4 6v2l7 1v382l-9 1-13 3-19 2h-14l-11-1-6-2-32-3-39-1h-99l-25 1-18 2h-8l-36-4-5-1 4-2 8-3 18-4 10-3-13-2-9-3-6-1 3-2 3-1-9-1 5-4 7-3-10-1 3-3 7-3 11 1 9-6 3-3 8-2-17-3-3-1v-2l2-1-1-1-13-2 6-6-5-1-4-1-10-1 4-4 14-2 4-3 8-1-4-2 4-6 11-1 4-4 2-8-1-8-7-12-8-9-5-4-8-15-1-7 12-3v-8h15l13-4 18-3h20l16 1h14l9-1h31l4 2 3 5 10 9 15 3 13 2h14l14-2 13-7 5-5 7-12 6-12-1-5 1-7 5-5 2-16h2v-7h-2v-23l-1-17v-10l1-18v-26l-1-2v-8l-1-6v-9l3-22 5-10 4-6 8-7z" fill="#F3F0F6"/>
<path transform="translate(1312,848)" d="m0 0h227l7 6 2 3v63h-2l-2 4-4 3h-2l9 9v65l-7 6-3 2 8 4 2 3v47l-3-4-7-8-6-3-2-6-3-7-4-7-7-5v-2l-6-1v-2l-15-1-11 2v2l-3 2h-3v2l-7 6-13 2-8 7-5 8-6 5-5 9v15l5 9 10 1-6-8-2-4v-10l3-6 8-7 3-6 8-7h7l5 2 2-5 7-7 9-4h10l10 4 7 7 3 6 1 5v7l5 1 6 3 5 6 1 3v9l-5 8-1 1 8 1 58 1v10h-331l1-7 3-3 36-1-6-7v-61l4-6 4-2h3v-2l-5-2-5-5-1-2v-62l5-6 3-2v-2l-7-6-1-2v-61l4-6z" fill="#403C5D"/>
<path transform="translate(469,1021)" d="m0 0h5l1 4-7 8-13 12-1 2h711l1-4h8l12 4 16 6 23 4 13 2h9l17-5 20-8 4-1 5 3 3 3 3 12 3 16 1 4-2 2h8l1 2-37 1-2 2-2 7h-1269v-54l9 1 8 3 10-2 17-3 7-5 5 1 1 5-3 10-4 10v9l3 5 5 3 7 1 100 1h133l32-2 6-2 5-5 2-4-1-12-1-5 3-6 9 2 9 3h18l26-5 11-4 14-7 15-9 12-3 5 1h2z" fill="#A7A8AA"/>
<path transform="translate(1306,388)" d="m0 0h228l6 5 2 3v62l-6 7-4 1v2l5 2 4 5 1 2v61l-4 6-5 3h-3v2l7 1 4 4 1 4v46l-2-2-4-7-5-5-6-3-4-12-6-9-2-1v-2l-5-2-6-3-4-1h-13l-12 5-9 8-14 3-5 4-5 10-5 3-5 6-3 7v10l3 9 3 6h-125l-6-4-4-5v-64l6-6 4-1-6-4-4-5v-63l6-7 3-3-5-2-4-4v-64l6-7z" fill="#314045"/>
<path transform="translate(966,57)" d="m0 0 2 3 2 7 4 2 529 1h69l25 2h3v34h-13l-19-1h-89l-17-1h-18l-27 1h-143l-28 1h-297l-16-3-6-3-4-5-2-15v-6l4-2-5-1v-1h45v-10z" fill="#CDCCCE"/>
<path transform="translate(632,55)" d="m0 0h1l-1 24-3 19-2 4-10 6-3 1h-17l-6-1-38-2h-273l-34-2-15-1-128 1-38-1-51-1-14 1v-32l12-1h553l28 1 11 1 16-1 8-3z" fill="#CECDCF"/>
<path transform="translate(1312,848)" d="m0 0h227l7 6 2 3v63h-2l-2 4-4 3h-2l-1 2h-225l-5-5-4-5v-61l4-6z" fill="#4C476F"/>
<path transform="translate(1313,928)" d="m0 0h224l7 4 3 4v65l-7 6-5 2h-220l-8-4-4-6v-62l5-6z" fill="#2B343B"/>
<path transform="translate(1306,388)" d="m0 0h228l6 5 2 3v62l-6 7-4 1-1 2h-224v-2l-5-2-4-4v-64l6-7z" fill="#4C476F"/>
<path transform="translate(77,1020)" d="m0 0h238l6 8 19 38-1 5-5 6-11 1h-252l-13-1-5-5-1-6 11-23 10-19z" fill="#030305"/>
<path transform="translate(72,559)" d="m0 0h237l5 6 12 23 8 15v6l-4 6-2 1h-275l-5-4-1-2 1-9 8-16 11-21z" fill="#010103"/>
<path transform="translate(1309,547)" d="m0 0h221v2l7 1 4 4 1 4v46l-2-2-4-7-5-5-6-3-4-12-6-9-2-1v-2l-5-2-6-3-4-1h-13l-12 5-9 8-14 3-5 4-5 10-5 3-5 6-3 7v10l3 9 3 6h-125l-6-4-4-5v-64l6-6z" fill="#4C476F"/>
<path transform="translate(1593,880)" d="m0 0 5 1 2 1v205h-58l-10-1 5-6 2-4v-9l-3-6-5-4-8-3-2-12-5-8-6-5-8-3h-10l-10 5-7 8-1 2-5-1h-7l-8 7-3 6-8 7-2 5v10l5 8 2 4h-10l-5-8-1-2v-15l6-10 7-6 5-8 7-6 13-2 5-5h2v-2l6-2v-2l11-3 12 1 3 1v2l6 1 10 10 4 7 2 9 8 5 6 7 1 2v-45l-4-4-6-3 4-3 6-5v-65l-5-5-3-2v-2l5-3 6-1 2-10 2-14 3-6 1-1h5l1-3 9-3 13-2z" fill="#CDCCCE"/>
<path transform="translate(82,406)" d="m0 0h216l5 4 2 4v129l-5 6-7 1-5-3-3-4v-116h-190v116l-6 7h-6l-6-4-1-2v-131z" fill="#050608"/>
<path transform="translate(674,55)" d="m0 0h20l10 43 9 39 3 14 3 16h1l1-10 7-24 17-60 5-18h18l11 40 5 18 8 30 6 26 3-17 12-53 9-41 1-3h20l-4 19-2 6-1 8-3 9-12 50-5 21-4 15-3 13-1 1h-18l-6-23-7-23-14-50-3-12v-5h-2l-1 9-8 29-9 31-7 24-6 20h-19l-6-25-11-46-13-53-4-16z" fill="#030305"/>
<path transform="translate(87,868)" d="m0 0h218l5 5v132l-5 5-7 1-7-6v-118h-191v119l-6 5-8-1-5-6v-129l4-6z" fill="#010203"/>
<path transform="translate(521,868)" d="m0 0 12 1 10 3 28 1 25 2 10-2h8l4 3 6 1 9-3 6-1 25 1 3 1h41l11-1h28l8-1h7l7 2 12 2 9 1 30 1 15 2h7l9-3 23-5 14 1h26l17-2 2-1h10l10 2 26 2 20 1 15-2 15 1 7-1 24 1 4-1 4 1 8 1h7l8 2 14 1h11l11-4 6-1 2-3 19 19-1 2-709-1v-1l681-1-7-2-15-1-35 1-134 1-45-1h-40l-10-1h-79l-85 1h-52l-87 1-5 1h-25l-35-2-18-3 1-2 15-4 16-1 17-3 4-2z" fill="#CDCCCE"/>
<path transform="translate(0)" d="m0 0h1600v5l-38 1h-537l-12-1h-9l-2 1-4-1h-998z" fill="#807E8E"/>
<path transform="translate(45,498)" d="m0 0h7l2 3-1 10 3 7 3 17v22l2-1-1 9-8 16-9 19-1 4v11l6 12v2h-2l-1 2-4-1 6 19v9l-5 5-8 2h-7l2 3-10 2-5-7 1 5 1 3-6 1-5-5-5-2v-106l5-2 1-10 5-5 5-6h1v8l5-6h2l3-6h2l1-4 9-10 1-1h-10l-4 4 1-6 9-12 6-4z" fill="#F3F0F7"/>
<path transform="translate(100,887)" d="m0 0h191l-1 115h-1l-2-31v-9l-7 3-11 11-8 7-7 7-7 3 1-3 8-7 22-22 3-5-1-7-7-8-24-24-2-1h-7l-5 5v8l12 13 8 7 3 3v3l-8 7-12 12-3-1 7-8 7-7 1-6-20-20-5-1-4 7h-2l-1 4-8 14-8 15-6 12-8 14-7 6-4-1 8-6 39-78v-6l-5-5h-9l-6 9-8 16-8 17-10 19-8 16-3 5-1 6h-1v-8l11-23 15-31 12-26 3-5-1-2-15-2-36 1-30-1-10 3-3 3-3 7-2 9-1 17v11l3-1 7-8 12-12 1-2h2v-2l5-5 6-5 7-2 7 2 7 9v7l-5 8-8 8h-2l-1 3-5 5 2 6 12 12 3 6-4-2-6-7-8-7-7-7 6-7 17-17 1-2v-7l-5-5h-7l-8 7-25 25-1 2v7l7 8 26 26-6-1-12-12-8-7-13-13-1 20-1 6-1 22h-2z" fill="#EBEDEF"/>
<path transform="translate(469,1021)" d="m0 0h5l1 4-7 8-13 12-1 2h709l1 1v6l-1 1h-709l20 20v5l-5 1-12-11-17-17 1-5 26-26z" fill="#67DD48"/>
<path transform="translate(1128,404)" d="m0 0 7 1 27 27-1 4-7 8-19 19-3 2h-4v-7l20-20h-708l-2-1v-7h710l-7-8-3-2v-2l-4-2-6-6-1-4z" fill="#6BD84F"/>
<path transform="translate(463,560)" d="m0 0h5l1 5-19 19-1 2h709v8h-709l1 3 8 7 10 10 1 4-3 3-6-4-14-14-8-7-3-4 1-5 12-13 7-7z" fill="#67DC48"/>
<path transform="translate(1134,864)" d="m0 0 5 1 2 1v2l4 2 21 21 2 5-8 9-8 7-13 13h-5l-1-4 7-8 12-12 1-2h-708l-1-1v-7h709l-6-7-14-14z" fill="#67DC48"/>
<path transform="translate(1081,384)" d="m0 0h24v2h-2l-1 5 9-1 9 2 3 2-1 5-5 2-1 2h2l1 5h2l2 3 3-2 1 9-3-1-2 7-9 5-21 1-47-1-23-1h-8l-4-1-38-2-11-2-7-3-2-4h2v-2l6-5 3-3 9 1 2 1v2l3 1h7l6-1 13 2h11l1-3-22-4-6-4-2-6h2v2l10 1-5-6v-2h6l16 4 11-2 5-1 1-3h30z" fill="#F3F0F7"/>
<path transform="translate(1485,565)" d="m0 0h14l8 3 5 5v3l3 1 2 5 1 12 5 1 6 3 1 3h2l2 6v11l-1 2h-2l-2 5-7 3h-69l-8-2-6-4-4-5-1-2v-12l4-7 6-5 2-3h2l2-4 7-5h3v-2l9 1 2-5 5-4z" fill="#5E7192"/>
<path transform="translate(1492,1025)" d="m0 0h10l10 4 7 7 3 6 1 5v7l5 1 6 3 5 6 1 3v9l-5 8-1 1 8 1v1h-94l-6-8-2-4v-10l3-6 8-7 3-6 8-7h7l5 2 2-5 7-7z" fill="#5D7191"/>
<path transform="translate(82,578)" d="m0 0h217l9 17v2h-235l1-5z" fill="#EDEFF0"/>
<path transform="translate(87,1039)" d="m0 0h218l9 17v2h-236l2-5z" fill="#CECDCF"/>
<path transform="translate(853,54)" d="m0 0h112v16h-47v127h-18v-127h-47z" fill="#030305"/>
<path transform="translate(634,55)" d="m0 0h19v108l-3 12-7 11-10 8-10 4-5 1h-22l-11-3-7-4-9-8-4-8-3-11v-7h19l3 12 4 7 7 4 5 2h12l9-3 7-6 5-10z" fill="#020203"/>
<path transform="translate(1494,1016)" d="m0 0 12 1 3 1v2l6 1 10 10 4 7 2 9 8 5 6 7 1 2 1-45h1l1 46 2-2 4-11 4-5h18l14-5 9-2v50h-58l-10-1 5-6 2-4v-9l-3-6-5-4-8-3-2-12-5-8-6-5-8-3h-10l-10 5-7 8-1 2-5-1h-7l-8 7-3 6-8 7-2 5v10l5 8 2 4h-10l-5-8-1-2v-15l6-10 7-6 5-8 7-6 13-2 5-5h2v-2l6-2v-2z" fill="#A6A7A9"/>
<path transform="translate(1311,1010)" d="m0 0 3 1-5 6v64h2l3 3 2 1h118v-2h2l2 3 162 1v10h-331l1-7 3-3 36-1-6-7v-61l4-6z" fill="#1D1C22"/>
<path transform="translate(526,829)" d="m0 0h10l5 3 2 3-1 4-4-5-9-1-11 3-19 2-21 2-18 4-25 3-20 2-10 2h-19l-5-1h-9l-10 1-8-1h-9l-16 3-6 1-13 2-5 3 2 4 5 4-1 3-5-5-7-2h-11l-17-1v-1l22-3h6v-2l-4-2-3-6-10-4-18-5-22-2h-86l-28 2-38 2-20 2-8 2-22 3h-12l-14-1-5-3-2-4-7-1v-7l5 1 7 7 3 1 22 1 11-2 16-1 24-3 17-1 43-2 10-1h56l37 1 14 1h20l27 6h13l9-1 8-3 19 4 13 3 10 1 5 1h11l29-4 23-2 36-6 22-1z" fill="#F3F0F7"/>
<path transform="translate(710,603)" d="m0 0h13l7 2h33l2 2-7 3-3 2-9 1 1 5h3l10 10 3 7-1 5-10 5-5 1h-32l-32-3h-18l-10-2-7-1-4-2-1-3 2-3 3-1 3-3h8l5-2 7 1v3h6l3-6 12-3 10-4 6-3 3-2-1-1h-21v-1l9-2-38-1v-1l30-1 16-1z" fill="#F3F0F7"/>
<path transform="translate(780,558)" d="m0 0 10 5 9 4 7 2h5l-2-2-9-2 2-2 9-1 4-1 1 2 10-1v2l-4 1v2h6l1 1 1-3-3-1 2-1 8 8 5 2 8-1 4-2v-2l5-1-2 5 2 5 1-4 3-7 7-1 8 1 9 1 17 6 7 3-4 2-11 1 49 2h18v2h-68l-6 1h-14l-17-2h-24l-11 1h-42l-31-1h-43l-42 2-40-2v-1h54l31-2 39-1-9-3 1-3 9-5 7-4 16-3z" fill="#F3F0F7"/>
<path transform="translate(1501,117)" d="m0 0 49 1h39l11 1v5h-32l-30 1-15-1-72-1-175 1-21 2h-291l-12 1-13-1-10-4-1-2 6 1 9 2 13 1 5-1 254-1 36-1 19-2 14-1h158z" fill="#F3F0F7"/>
<path transform="translate(695,56)" d="m0 0 3 4 4 6v2l12 3 17 1 8-1 4-5 5-9h1l-1 9-16 56-9 33-1 2-1 10-2 2-3-10-2-15-2-7-17-74z" fill="#CDCCCE"/>
<path transform="translate(851,55)" d="m0 0h1v15h48v127h18v-127h1v128h-20v-127l-4 1 2 5-2 19-3 5-10 7h-20l-21-6-3-3v-19l-1-3 5-20h2l2 8 3 1 1-7z" fill="#C4C3C7"/>
<path transform="translate(821,56)" d="m0 0h1v7l-12 54-8 35-3 18-2-1-7-31-9-32-12-44v-5l3 4 5 8v2l5 1h25l8-3z" fill="#CDCCCE"/>
<path transform="translate(1485,556)" d="m0 0h13l9 3 6 4v2l4 2 6 10 2 6v4l6 2 7 7 4 8v13l-3 6-6 7-7 4-6 1h-75l-8-4-6-5-4-8-1-5v-10l5-10 6-6h3l2-6 4-6 7-4 11-2 9-8zm0 9-12 6-4 5v2l-9-1v2l-5 1-7 6v2l-3 1-4 5-5 5-2 4v12l2 4 7 6 4 2 6 1h69l8-4 1-4h2l1-2v-11l-2-6h-2l-2-4-7-3h-3l-1-12-3-6h-2v-3l-5-5-8-3z" fill="#EBEDEE"/>
<path transform="translate(14,116)" d="m0 0h19l83 1h33l29-1 66 1 22 2 16 2 40 1 229 1 9 1 51 2 8-2 5-2-5 5-5 2-31-1h-20l-8-1-33-1-263-1-44-3h-26l-18 1h-171l1-5z" fill="#F3F0F7"/>
<path transform="translate(760,885)" d="m0 0h83l10 1h41l45 1 139-1 32-1 13 2 3 3h-619l1-2h24l10-1 91-1h59z" fill="#F4F6F7"/>
<path transform="translate(1415,137)" d="m0 0 41 1 32 2 61 1 14-2h30l7-1v7l-21 1-30 1h-34l-56-2h-203l-10 1h-18v-1l19-3 16-3 12-1z" fill="#F3F0F7"/>
<path transform="translate(46,136)" d="m0 0h87l31 2h42l39 1 19 2 9 1h21l13 2v1l-46 2-63-1-25-1-56-1-102 1-15 2v-6l9-3 1-1h21z" fill="#F3F0F7"/>
<path transform="translate(0,730)" d="m0 0h10l1 3 6 2-3 2 2 1h9l25-2 39 1 9 2v1l-15 1-5 1-15 1 31 1 12 1 13-1 11-1 13-6 13-4 8 1 17 5 18 6 1 2h-9v2h4v2h-13l-4-1h-11l-6 3-24 1-5 1h-11v-1l15-3h-22l-44-2h-49l-3-2 15-2h-13l-20-4z" fill="#F3F0F7"/>
<path transform="translate(205,445)" d="m0 0h8l5 4 1 2v7l-9 17-11 23-18 36-4 5-4 2-6-1-6-7 1-7 38-76z" fill="#040406"/>
<path transform="translate(210,906)" d="m0 0h9l6 6-1 9-10 19-24 48-5 9-5 4-5 1-6-4-2-3v-7l35-70 6-10z" fill="#030305"/>
<path transform="translate(139,454)" d="m0 0h7l6 6v8l-9 10-14 14-1 2 4 2 17 17 3 4v8l-5 5h-9l-8-7-23-23-3-6v-5l11-12 10-10h2v-2h2l2-4z" fill="#050508"/>
<path transform="translate(240,915)" d="m0 0h7l8 7 25 25 2 4-1 7-9 10-22 22-2 1h-9l-5-5-1-5 4-7 19-19h2l-3-5-14-13-7-8v-8l4-5z" fill="#040406"/>
<path transform="translate(1312,848)" d="m0 0h227l7 6 2 3v63h-2l-2 4h-2l2-6-1-39-1-5-1-17h-2v-2l-6-1h-211l-8 6-6 7v53l2 5-4-2-3-4v-61l4-6z" fill="#3B3A55"/>
<path transform="translate(145,915)" d="m0 0h7l6 6v7l-7 8-17 17 6 7 11 10 7 9v6l-5 6h-9l-8-7-25-25-1-2v-7l7-8 26-26z" fill="#020203"/>
<path transform="translate(236,454)" d="m0 0 7 1 32 32 1 2v7l-6 8-8 7-19 19h-10l-4-4-1-8 9-10 14-14-1-4-20-20-2-4v-5l5-6z" fill="#030304"/>
<path transform="translate(1531,468)" d="m0 0 5 1 5 6 1 2v61l-4 6-5 3h-97l-70-1 1-2 9-1 18-1h22l5 1 34 1 5-2 12-1 5-1 21-1 12-3 5-3 11-2 3-3 3-11 1-7v-26z" fill="#2B343B"/>
<path transform="translate(1056,828)" d="m0 0 12 2h24l16 1 21 2 29 1 23 2h21l32 6h15l26-1h20l6 3 1 2-3 18h-1l-1-10-4-4-3-1-11-1h-45l-16-4-9-2h-24l-10 2h-14l-13-3-19-1-5-1-27-2-13-1h-14l-13-4-5 1 2-4z" fill="#F3F0F7"/>
<path transform="translate(467,1033)" d="m0 0 6 1 9-1 5 2h35l9 1h9l6-1 7 1h26l20 2 3 3-9 2-36 1-8-1-10 1h-37l-9 1 115 1v1h-154l2-4z" fill="#A7A8AA"/>
<path transform="translate(229,899)" d="m0 0h21l19 1 9 3 5 8 2 6 2 24-1 3-4 1-9-9-9-11-6-5v-2h-2l-4-4-8-3-10 1-4-3v-2h-2l-2-5z" fill="#CECDCF"/>
<path transform="translate(700,78)" d="m0 0 2 4 8 19 1 3h17l4-3 7-16 3-4-1 9-18 65-1 2-1 10-2 2-3-10-2-15-2-7-12-52z" fill="#EEF0F1"/>
<path transform="translate(816,79)" d="m0 0h1l-1 11-14 62-3 18-2-1-7-31-9-32-3-11-1-8h2l6 14 1 3 15 1 6-3 7-18z" fill="#EEF0F1"/>
<path transform="translate(1543,879)" d="m0 0h1l1 39-2 6-3 3h-2l-1 2h-225l-3-4-2-5v-37l2 4 2 12 2 9 5 10v5l4 1 4 2h35l37-1h110l12-2 11-7 6-9 3-12 2-15z" fill="#403C5D"/>
<path transform="translate(623,399)" d="m0 0 2 1 2 6 4 5 20 7-1 5-7 1h-9l-4-2-3 2h-6l3-2-5-2h-19l-6 1-2-1h-11l-3-4 1-5 2-5 5-1h8l1 1 7-2 9-1 7-3z" fill="#F3F0F7"/>
<path transform="translate(1175,421)" d="m0 0 2 1 3 15 2 5 1 13v1h1v8l-2 3h-2l-2 4-6 4-7 3-5-1-3-1v-2h-2l-1-4 4-7 8-11 1-1v-6l-5-1-2-8 3-4v2l2-1v-7l5-1 2 3z" fill="#F2EFF6"/>
<path transform="translate(1458,496)" d="m0 0h8l2 7 5 1v-8h10v6l2 3 9-1 1 5-3 2-1 6h7v-7l-2-2v-6l-1-3 4-2 2 7h8l1 6-1 1-1 7-5 1-2-1v2l-10 1-7-3-2-7-5-1h-2l1 9-9-3v-4h-2v-3l-6 2v8l-9-2-2-7h-7l-2-5 2-1 1-3 6-2v3h2v3l7-2z" fill="#2E3740"/>
<path transform="translate(673,56)" d="m0 0 2 1 5 19v3h-2l1 8v12l-3 3-9 1-8-3-3-9-2-18v-16l2 4 2 7 11 1 2-1z" fill="#CDCCCE"/>
<path transform="translate(1318,1090)" d="m0 0h95l8 2 13 1 2 1v3h-132v-2z" fill="#2B343B"/>
<path transform="translate(1062,564)" d="m0 0h7l-4 4-2 1 3 1-1 3-3 1-4-2-3 1h-10l-9 3-9-1h-14l-4 1 4 1h27l13 1v1l-10 1h-55l-9-1-4-4 8-5 9-2h17l3-1h29l5-1 7 2z" fill="#F3F0F7"/>
<path transform="translate(1307,388)" d="m0 0h227l6 5 1 2v46h-1l-1-26-2-19-3-3-2-1-217-1-11 1z" fill="#393951"/>
<path transform="translate(833,835)" d="m0 0h16l1 2v27l-3 5-5 4h-8l-6-4 1-3 4 1h10l1-6-4 2h-6l-6-5-1-2v-14l4-6z" fill="#0C0D11"/>
<path transform="translate(843,530)" d="m0 0 11 1h4l1 2v28l-5 6-4 2h-7l-5-4v-3l5 1h7l2-1 1-4h-11l-5-5-1-2v-13l4-6z" fill="#111219"/>
<path transform="translate(768,365)" d="m0 0h18l6 4 2 3v7l-4 6-1 4 6 10v2h-6l-7-13h-7l-1 14h-6z" fill="#08090B"/>
<path transform="translate(693,374)" d="m0 0h7l5 1h4v30l-5 6-5 2-6-1-5-4v-3l5 1h8l2-1 1-5-4 2h-7l-5-5-2-3v-10l3-7z" fill="#1F1E26"/>
<path transform="translate(520,521)" d="m0 0h17l6 4 2 3v7l-3 5-2 4 7 14h-7l-6-12v-2h-9v14h-5z" fill="#212128"/>
<path transform="translate(1338,954)" d="m0 0h10l8 6 1 4v9l-3 5-5 4-2 1h-9l-4-2-5-7v-12l5-6z" fill="#5D7192"/>
<path transform="translate(1338,874)" d="m0 0h9l5 3 5 6v10l-4 6-6 4h-8l-7-4-4-8 1-8 4-6z" fill="#7F7E8E"/>
<path transform="translate(938,519)" d="m0 0 4 1v38h-6v-2h-2v2h-10l-4-5-2-4v-8l3-7 3-3 7-1 4 2 1-12z" fill="#212129"/>
<path transform="translate(685,982)" d="m0 0h13l8 4 2 5-1 7-5 5 2 5 5 8v3h-5l-6-10-1-3-9-1v14h-5v-36z" fill="#0E0F14"/>
<path transform="translate(1535,594)" d="m0 0 5 5 2 5v13l-3 6-6 7-7 4-6 1h-75l-8-4-6-5-4-8v-5l3 6h3l4 4h5l5 3 6 1 68 1v1l-73 1v1h73l8-3 6-8 1-2v-13l-3-5z" fill="#B2B2B4"/>
<path transform="translate(766,991)" d="m0 0 7 1 2-1h7l5 4 1 2v16l-4 5-2 1h-8l-3-1v11h-5l-1-2v-30z" fill="#0B0B10"/>
<path transform="translate(550,826)" d="m0 0h16l5 3 3 4v7l-5 6h-2l8 14-1 3-5-1-6-12v-2h-9v14h-5v-35z" fill="#060609"/>
<path transform="translate(1332,494)" d="m0 0h12l5 4 2 4v10l-3 6-5 3-2 1h-9l-8-7-1-3v-9l5-8z" fill="#A3A4A8"/>
<path transform="translate(1339,1034)" d="m0 0h8l5 3 4 5 1 2v8l-4 7-5 3h-11l-5-3-4-8 1-9 4-5z" fill="#5D7192"/>
<path transform="translate(613,834)" d="m0 0h6l5 1h4v37l-5 1-1-1v-11l-3 2h-7l-5-4-2-5v-9l3-7z" fill="#0E0F14"/>
<path transform="translate(987,522)" d="m0 0h5l3 12 2 11 2-3 6-19 5-1 3 7 4 17 2-5 4-19h5l-1 11-6 23-1 2h-5l-6-19v-7h-2l-4 16-3 10h-5l-7-26z" fill="#22222A"/>
<path transform="translate(978,826)" d="m0 0 5 1 5 24 3-7 5-18h5l6 21v6h2l1-9 4-17 1-1h5l-4 18-4 17-4 2-3-3-6-22-3 7-4 15-4 3-4-4-4-19-2-6z" fill="#0C0D11"/>
<path transform="translate(927,824)" d="m0 0h5v39l-7-1-2 1h-7l-5-5-2-4v-9l3-7 5-4 7 1 3 1z" fill="#101115"/>
<path transform="translate(831,374)" d="m0 0h9l3 1 4-1 1 1v36l-5 1v-11l-3 1h-9l-5-6-1-3v-11l4-6z" fill="#0E0F14"/>
<path transform="translate(1333,574)" d="m0 0h9l6 4 3 5v8l-3 6-4 4-9 1-7-3-3-3-2-6 1-8 3-6z" fill="#A5A6A8"/>
<path transform="translate(1306,468)" d="m0 0 3 1-5 9 2 10 1 2 1 21 1 11-1 3h-2l-1 12 2 4 4 4-1 2-6-1-6-7v-63l6-7z" fill="#293138"/>
<path transform="translate(1332,414)" d="m0 0h11l6 4 2 5v8l-4 8-8 3-6-1v-2l-7-2-2-4v-11l3-6z" fill="#A6A7A9"/>
<path transform="translate(614,530)" d="m0 0h6l5 6 1 2v13l-4 6-2 1h-10l-2-1v11h-4v-37h3v2z" fill="#09090C"/>
<path transform="translate(175,764)" d="m0 0 16 2 16 5v1l-22 1 14 4 6 1v1l-13 1h-49l-7 1h-8l3-2 15-3 17-3 10-1-25-1v-1l13-3 5-2z" fill="#F3F0F7"/>
<path transform="translate(665,374)" d="m0 0h9l7 6 1 2v11l-4 6-5 3h-7l-5-3-3-5-1-2v-9l4-6z" fill="#0E0E13"/>
<path transform="translate(801,991)" d="m0 0h8l6 4 3 8-1 9-6 7h-11l-5-5-2-4v-10l4-6z" fill="#0A0A0E"/>
<path transform="translate(638,530)" d="m0 0h7l6 3 4 5v11l-3 6-4 3h-11l-6-7v-13l4-6z" fill="#0D0E12"/>
<path transform="translate(727,408)" d="m0 0h5l-4 3h-4l1 5-6 3-10 1v2l16 3v2h-12l-18-1-14-1v-1l9-2-5-2-19-1-14-4-5-4-2-2 6 1 7 3 9 1 2 1v-3l9-1 4 3-1 1 7 1 10 1 11-5 2 1-1 2 6-3 3-3z" fill="#F3F0F7"/>
<path transform="translate(1313,849)" d="m0 0h227l5 4-1 3-9-3-24-1h-155l-44-1z" fill="#101014"/>
<path transform="translate(46,519)" d="m0 0 4 2 4 5 3 9v18l-4 9-2 1-3-3-2-19-3-8-12 12h-1l-2-13 1-1 9-2 7-1v-7z" fill="#F4F6F7"/>
<path transform="translate(1591,834)" d="m0 0h9v10h-8l-24 7-10 1-3 2-2 8h-1l-2-8-2-5v-5l2-2 27-3 12-4z" fill="#F3F0F7"/>
<path transform="translate(1312,848)" d="m0 0h227v1l-226 1 43 1v1l-42 1-6 4-1 3v62l-3-1-1-2v-61l4-6z" fill="#36344C"/>
<path transform="translate(762,412)" d="m0 0h11l12 3 5 4-1 4-10 2h-35l-6-3 1-3 15-2 7-2z" fill="#F3F0F7"/>
<path transform="translate(794,825)" d="m0 0h8l7 5 2 3v4h-6l-1-5-10-1-3 2v5l12 5 6 4 2 4-1 6-6 6h-11l-7-4-2-4v-4l5 1 4 5 7 1 4-3-1-5-16-8-2-3 1-9 5-4z" fill="#0E0E13"/>
<path transform="translate(948,567)" d="m0 0 6 1 10 4 3 3-1 3-12 2h-12l-27-2-2-2 4-3 6-2 9-1 5-2z" fill="#F3F0F7"/>
<path transform="translate(671,834)" d="m0 0 7 1 5 5 1 2v8l-1 1h-17l4 6 1 1 7-1 6-1-1 4-6 3h-7l-5-3-3-3-1-4v-8l3-6 4-4z" fill="#0C0C11"/>
<path transform="translate(588,834)" d="m0 0 7 1 6 6v9l-2 1h-16l2 5 4 2 5-1 6-1 1 2-4 4-3 1h-8l-6-5-2-4v-11l7-8z" fill="#0E0F14"/>
<path transform="translate(892,834)" d="m0 0 7 1 5 5 1 2v8l-4 1h-13l2 5 3 2 12-2-1 4-5 3h-8l-6-4-3-5v-8l3-7 4-4z" fill="#0E0F14"/>
<path transform="translate(720,991)" d="m0 0h8l6 5 1 2v9h-18l3 5v2h7l2-1h6l-3 5-2 1h-11l-5-4-2-5v-10l4-6z" fill="#0B0B0F"/>
<path transform="translate(0,767)" d="m0 0 7 1 13 6 7 2 34 2 30 1 18 3v1l-71-1-14-1-8-1-6-1-5-4v-2h-5z" fill="#F3F0F7"/>
<path transform="translate(901,530)" d="m0 0 8 1 6 7v8l-18 1 3 5v2l8-1 3-2h4l-2 5-4 2h-11l-6-7v-13l6-7z" fill="#0C0D11"/>
<path transform="translate(801,521)" d="m0 0h9l6 3 4 6v2h-6l-3-5-7-1-4 3 1 5 14 6 4 4v8l-4 5-2 1h-13l-6-5-1-5 5-1 4 6h9l2-2 1-6-11-3-8-6-1-2v-6l4-5z" fill="#0D0E13"/>
<path transform="translate(889,374)" d="m0 0h8l6 5 1 3v7l-1 1h-17l4 6 5 1 5-2h3v4l-7 3h-8l-6-6-1-3v-9l3-6z" fill="#0B0C0F"/>
<path transform="translate(806,374)" d="m0 0h8l5 4 2 5v6l-1 1h-17l3 6 7 1 3-2h4l-1 4-4 3h-10l-5-5-2-5v-9l4-6z" fill="#0F1014"/>
<path transform="translate(884,991)" d="m0 0h7l6 5 2 5v5l-1 1h-18l4 6 1 1h6l4-2h3l-1 4-4 3h-10l-5-4-3-7 1-8 4-6z" fill="#0B0C10"/>
<path transform="translate(722,530)" d="m0 0h7l6 6 1 10h-18l3 6 1 1h7l6-2-1 5-4 2h-10l-5-4-2-4v-10l3-6 3-3z" fill="#0B0B0F"/>
<path transform="translate(557,530)" d="m0 0h7l6 4 2 5v7h-18l4 7h8l2-2h4l-1 4-4 3h-11l-5-5-1-2v-12l3-6z" fill="#0C0D11"/>
<path transform="translate(1311,929)" d="m0 0h2l-1 5-2 4h-2l1 59 7 10-4 1-5-3-4-6v-62l5-6z" fill="#1D1C23"/>
<path transform="translate(932,412)" d="m0 0 1 4-6 3h-65l-3-1h-9l-9 1v-2l7-3 5 1 3-1 18-1h38l9 1z" fill="#F3F0F7"/>
<path transform="translate(670,530)" d="m0 0h6l5 4 1 2v22h-6l-1-22h-9v22h-7v-26l5-1 3 1z" fill="#090A0D"/>
<path transform="translate(1427,619)" d="m0 0 3 3 3 6h-125v-2l22-1 91-1 6-1z" fill="#413D5F"/>
<path transform="translate(1311,1010)" d="m0 0 3 1-5 6v64h2l3 4-1 2-4-1-6-7v-61l4-6z" fill="#2D353E"/>
<path transform="translate(866,834)" d="m0 0 6 1 6 6v21l-1 1h-5l-1-22h-8l-1 1-1 20h-6v-26l5-1h4z" fill="#0F0F14"/>
<path transform="translate(1126,409)" d="m0 0 4 2 8 7v2l4 2 7 8v1l-53-1v-1l17-1 7-4h2l2-7h2z" fill="#EFF1F2"/>
<path transform="translate(1337,489)" d="m0 0 7 1 3 1v2h2l4 6 3 4 1 3v7l-13 12-5 1h-7l-5-2-7-9-1-3v-7l4-10 6-3h2l-1 3h-2l-4 8v9l3 5 5 4h9l6-3 3-6v-10l-4-6-7-3-6-1z" fill="#2F3842"/>
<path transform="translate(635,835)" d="m0 0h5l1 22 5 1 4-2 1-21h6v27h-8l-2 1h-8l-4-5-1-2v-20z" fill="#0C0C10"/>
<path transform="translate(1539,931)" d="m0 0 5 1 3 4v65l-7 6h-4l1-4h2l2-4 1-10v-48l-3-7z" fill="#1A1A20"/>
<path transform="translate(851,624)" d="m0 0 14 3v3l4 1v2l2 1-8 5-8 2-15-3-1-5 5-5h2v-2z" fill="#F3F0F7"/>
<path transform="translate(866,530)" d="m0 0 7 1 9-1 5 6v22h-6l-1-23-8 1-1 1-1 21h-5v-27z" fill="#1F1E25"/>
<path transform="translate(824,991)" d="m0 0h3v3l5-3h7l5 4 1 8v16h-6v-22h-8l-2 1-1 21h-5v-27z" fill="#0E0F14"/>
<path transform="translate(695,834)" d="m0 0h8l6 5 1 4h-5l-2-2h-8v3l12 5 3 3-1 7-3 3-3 1h-8l-6-4-1-5h5l4 4h5l3-5-10-3-6-4v-6l5-5z" fill="#0D0D12"/>
<path transform="translate(1338,954)" d="m0 0h10l8 6 1 4v9l-3 5-5 4-2 1h-9l-4-2-5-7v-12l5-6zm-1 5-5 5v10l3 3 6 1h8l4-4v-9l-5-5-2-1z" fill="#7A7A8C"/>
<path transform="translate(746,991)" d="m0 0h8l6 5v4l-5-1-3-2h-5l-1 4 10 3 5 5-1 6-4 4-8 1-5-2-4-4 1-4 4 1 1 3h8l2-5-11-3-4-4v-6z" fill="#0A0A0E"/>
<path transform="translate(1022,826)" d="m0 0h28l-1 5h-10v31h-6v-31h-11z" fill="#131418"/>
<path transform="translate(1066,405)" d="m0 0 11 1 2 1 14 1h14l-4 5-3 1h-10l-27-3-1-3-6 4-8 1-12-3-3-2 18-1 6-1z" fill="#F4F6F7"/>
<path transform="translate(856,991)" d="m0 0h8l5 3 2 2-1 4-4-1-3-2h-6l-2 4 12 3 4 4v7l-5 4h-11l-5-5v-4l5 1 1 3h10v-4l-13-5-3-4 1-5z" fill="#0C0D11"/>
<path transform="translate(728,374)" d="m0 0 7 1 2-1h7l5 4v24h-5v-23l-9 1-1 1-1 20h-5z" fill="#101216"/>
<path transform="translate(914,374)" d="m0 0h10l5 4-1 5-4-2-5-2-4 1 1 4 11 4 2 2v7l-5 5h-9l-5-3-2-3v-3l5 1 3 3h6l1-5-11-4-3-3v-6z" fill="#0E0F14"/>
<path transform="translate(584,530)" d="m0 0 9 1 5 5v2l-5 1-2-3h-8l1 4 8 3 5 4 1 4-3 6-2 1h-12l-5-6v-3l5 1 2 3h8v-5l-10-3-3-2-1-7 5-5z" fill="#111117"/>
<path transform="translate(694,530)" d="m0 0h7l7 4v5l-5-1-5-3h-4v5l11 4 3 3v7l-4 4h-12l-5-5v-4l5 1 2 3h8l1-4-9-3-5-3-1-2v-6z" fill="#0E0E13"/>
<path transform="translate(1031,522)" d="m0 0h29l-1 4h-11v32h-6v-32h-11z" fill="#1A191F"/>
<path transform="translate(855,374)" d="m0 0 5 1 1 21 5 1 4-1 1-21 4-1 1 1v26h-18l-3-3z" fill="#0B0C10"/>
<path transform="translate(277,803)" d="m0 0h11l6 1 36 1 12 1-1 2-15 3-4 1-25-1-16-6z" fill="#F3F0F7"/>
<path transform="translate(976,522)" d="m0 0h6v24l-2 8-5 4h-12l-4-4v-6l5 1 3 4h6l2-3z" fill="#14141B"/>
<path transform="translate(837,537)" d="m0 0 4 2 1 11 2 3h6l3-4 1-10h1l1 10v9h2l-1 6-5 4-2 1h-7l-5-4v-3l5 1h7l2-1 1-4h-11l-5-5-1-2v-13z" fill="#0C0C11"/>
<path transform="translate(967,826)" d="m0 0h5v29l-3 5-3 3h-10l-7-6 1-5h4l4 6 6-1 2-2z" fill="#0E0E13"/>
<path transform="translate(1434,849)" d="m0 0h106l5 4-1 3-9-3-24-1-80-1z" fill="#1E1E24"/>
<path transform="translate(1545,854)" d="m0 0 3 3v63h-2l-2 4h-2l2-6-1-63z" fill="#414851"/>
<path transform="translate(753,832)" d="m0 0h5v11h10l-1 5h-9v11h-6v-11h-9l-1-5h10v-10z" fill="#0F1015"/>
<path transform="translate(1538,1011)" d="m0 0 5 1 4 4v47l-3-4-7-8-6-3v-7l8 8h3v-31z" fill="#2F3740"/>
<path transform="translate(935,1036)" d="m0 0h9l13 2v3l-36 2-2-1h-12l-6-2v-2l3-1h17z" fill="#A7A8AA"/>
<path transform="translate(632,365)" d="m0 0h5v32h17v4h-22z" fill="#1D1C22"/>
<path transform="translate(639,535)" d="m0 0h8l3 5v8l-4 6h-7l-4-6v-8z" fill="#E9EBED"/>
<path transform="translate(666,379)" d="m0 0h8l3 5v8l-3 5-7 1-5-6v-9z" fill="#E8EAEC"/>
<path transform="translate(1389,542)" d="m0 0h27l5 1 25 1 8 1v1h-88l1-2 9-1z" fill="#2B343B"/>
<path transform="translate(802,996)" d="m0 0h6l4 3 1 3v7l-3 5-7 1-4-4-1-2v-7l3-5z" fill="#C4C3C6"/>
<path transform="translate(717,829)" d="m0 0h5v5l4 1v5h-4v18l5 1-1 4h-6l-3-3v-20h-4l-1-4 5-2z" fill="#0D0D12"/>
<path transform="translate(937,368)" d="m0 0 5 1v5l5 2v2l-5 1 1 18 4 2v2h-9l-2-7v-16h-4v-3h4z" fill="#202028"/>
<path transform="translate(763,527)" d="m0 0 3 1 1 9 10 1v5h-10v11l-5 1v-12h-10v-5h10v-10z" fill="#212128"/>
<path transform="translate(693,374)" d="m0 0h7l5 3v6l-3-3h-8l-2 4v8l2 5h8v3l-2 2h-7l-5-5-2-3v-10l3-7z" fill="#111117"/>
<path transform="translate(1427,613)" d="m0 0 3 6h3l4 4h5l5 3 6 1 68 1v1l-73 1v1l5 1v1h-13l-9-7-4-8z" fill="#CAC9CB"/>
<path transform="translate(610,535)" d="m0 0h7l3 3 1 2v8l-3 5-1 1h-7l-2-2v-15z" fill="#EBECEE"/>
<path transform="translate(833,379)" d="m0 0h8l2 4v9l-3 5-1 1h-5l-4-5-1-7 2-5z" fill="#EAECEE"/>
<path transform="translate(775,996)" d="m0 0 7 1 2 3v9l-3 5-1 1h-6l-3-3v-14z" fill="#A6A7AA"/>
<path transform="translate(927,535)" d="m0 0h6l3 2v14l-3 3h-6l-3-4-1-9z" fill="#ECEEEF"/>
<path transform="translate(694,379)" d="m0 0h8l2 2v13l-4 4-6-1-3-5v-8z" fill="#EAECED"/>
<path transform="translate(918,840)" d="m0 0h7l2 2v14l-4 3h-5l-3-4v-13z" fill="#E6E7E9"/>
<path transform="translate(615,839)" d="m0 0 6 1 1 1v15l-3 3h-5l-4-6v-9z" fill="#EDEEF0"/>
<path transform="translate(845,535)" d="m0 0h6l2 2v14l-3 3h-6l-3-4v-11z" fill="#EEF0F2"/>
<path transform="translate(835,840)" d="m0 0h7l2 2v14l-4 3-5-1-3-3v-12z" fill="#EAEBED"/>
<path transform="translate(1078,561)" d="m0 0h7l5 2 1 4-8 7-4 4-2 1h-23v-1l11-1h11l2-1v-2l-4-4h2l1-5-4-2z" fill="#F3F0F7"/>
<path transform="translate(1023,522)" d="m0 0h5l-1 11-6 23-1 2h-5l-2-6v-5l4 3 4-18z" fill="#1E1D25"/>
<path transform="translate(938,519)" d="m0 0 4 1v38l-6-4v-17l1-2-1-2v-13z" fill="#262730"/>
<path transform="translate(1536,471)" d="m0 0 4 2 2 4v61l-3 3-1-2 1-60-3-6z" fill="#24272E"/>
<path transform="translate(788,407)" d="m0 0 9 3-1 3 9 2 5 1 11-2h9l10 4v1h-13l-22 1-5-2-5-3-4-2v-4l-3-1z" fill="#F3F0F7"/>
<path transform="translate(1303,937)" d="m0 0 3 1 1 64-3-1-1-2z" fill="#0B0B0D"/>
<path transform="translate(1536,1091)" d="m0 0h13l15 2 6 3v1h-41l1-4z" fill="#2B343B"/>
<path transform="translate(525,526)" d="m0 0h9l5 2 1 1v7l-4 3h-11z" fill="#E3E5E7"/>
<path transform="translate(1133,399)" d="m0 0 3 1v2l3 1 7 8 11 9 5 6-1 5-7-6-19-19-6-2v-3z" fill="#EBE9EF"/>
<path transform="translate(688,987)" d="m0 0h11l4 4-1 7-4 2h-10z" fill="#A8A8AC"/>
<path transform="translate(1498,497)" d="m0 0 2 1 1 6h8l1 6-1 1-1 7-5 1-2-1v2l-5 1 1-3 2-1v-6l-3-3v-6l-1-3z" fill="#2B343C"/>
<path transform="translate(814,541)" d="m0 0 4 2 1 1v8l-4 5-2 1h-13l-6-5-1-5 5-1 4 6h9l2-2v-7l2-1z" fill="#0C0C10"/>
<path transform="translate(554,831)" d="m0 0h12l3 4-1 6-7 3h-6l-1-1z" fill="#E3E5E6"/>
<path transform="translate(774,370)" d="m0 0h11l3 2v8l-6 3h-8z" fill="#E6E8E9"/>
<path transform="translate(619,535)" d="m0 0 6 1 1 2v13l-4 6-2 1h-10l-2-1v7h-1v-8l2-2 8-1 3-5v-8z" fill="#1A1920"/>
<path transform="translate(716,374)" d="m0 0 5 1v27h-6v-27z" fill="#2B2B37"/>
<path transform="translate(1592,753)" d="m0 0 8 1v10l-8 2-14 1 2-2 9-3v-2l-11-1 3-2 7-2z" fill="#F3F5F7"/>
<path transform="translate(780,606)" d="m0 0 19 1 17-1 8 1-2 2-8 2-7-1-8 1h-7l-5 2-7-1-5-3 2-2z" fill="#F3F0F7"/>
<path transform="translate(1302,391)" d="m0 0m-1 1 1 3-1 4v61l3 4-4-2-2-2v-64z" fill="#413D5E"/>
<path transform="translate(634,824)" d="m0 0h15l14 3v3l-1 1h-10l-1-3h-11l-2 2 1 2-10-1-1-5z" fill="#F3F0F7"/>
<path transform="translate(660,531)" d="m0 0 5 1-1 5v18l-1 2h2v-20h1v21h-7v-26z" fill="#3D3E47"/>
<path transform="translate(0,763)" d="m0 0 8 1 8 4 6 2 9 1 37 1 21 1-4 2-42-1-23-2-12-4-8-3z" fill="#F3F0F7"/>
<path transform="translate(1540,557)" d="m0 0 2 1v46l-2-2-4-7v-2h2l1-33z" fill="#3E3F5A"/>
<path transform="translate(772,1035)" d="m0 0 5 1 3 3-7 2h-10l-5-1-10 1-13-1 1-2 5-1h17z" fill="#A7A8AA"/>
<path transform="translate(521,522)" d="m0 0h17l5 3 2 3v7l-2 1-1-5-2 1-2-4-13-2v14h-1z" fill="#09090C"/>
<path transform="translate(688 1e3)" d="m0 0h9l2 6-1 7-2 2-5-1h-3z" fill="#A7A8AA"/>
<path transform="translate(816,835)" d="m0 0 5 1v26l-4 1-1-1z" fill="#0B0C10"/>
<path transform="translate(825,531)" d="m0 0h5v27h-5z" fill="#111117"/>
<path transform="translate(866,530)" d="m0 0 6 2-3 1 1 5v20h-5v-27z" fill="#212128"/>
<path transform="translate(1541,396)" d="m0 0h1v62l-4 5-2-1 3-5v-42h1z" fill="#464266"/>
<path transform="translate(728,374)" d="m0 0 4 1 2 2-2 1 2 3-1 20h-5z" fill="#21222B"/>
<path transform="translate(891,118)" d="m0 0h2l-2 4-6 5-4 2-24-1-13-4-8-2-1-3 16 4 6 2h14l8 1 7-3z" fill="#F3F0F7"/>
<path transform="translate(1299,557)" d="m0 0h1v24l1 40h-2l-1-2v-61z" fill="#403C5D"/>
<path transform="translate(854,539)" d="m0 0h1l1 10v9h2l-1 6-5 4-2 1h-7l-5-4v-3l5 1h7l3-3v-11z" fill="#0A0A0E"/>
<path transform="translate(584,530)" d="m0 0 9 1 5 5v2l-5 1-2-3h-8l1 5-4 2h-2l-1-7 5-5z" fill="#111218"/>
<path transform="translate(768,365)" d="m0 0h18v1l-16 1 1 4v29l3 2h-6z" fill="#353546"/>
<path transform="translate(717,1007)" d="m0 0h18l2 5-10 3-7-1-3-4z" fill="#CAC9CB"/>
<path transform="translate(1327,884)" d="m0 0h1l2 10 2 5 4 2 3 1h8l6-4 4-7 1-7 2 4-1 7-5 5-7 6-9-1-8-5-5-10z" fill="#413D5F"/>
<path transform="translate(706,998)" d="m0 0 3 1 3 3-1 14-4-1-6-10 2-4z" fill="#A4A5A8"/>
<path transform="translate(751,419)" d="m0 0 19 1 6 1v2l-15 1h-13l-5-1v-2z" fill="#F4F6F7"/>
<path transform="translate(1545,1020)" d="m0 0h1l1 5v38l-3-4v-33z" fill="#1D1D23"/>
<path transform="translate(182,954)" d="m0 0h2l-2 6-8 17-7 12-1 6h-1v-8l11-23 5-9z" fill="#E4E6E8"/>
<path transform="translate(677,567)" d="m0 0h6l3 3 8 3 2 3-4 1v-2l-5-1-3 3-8-2-1-5z" fill="#F3F0F7"/>
<path transform="translate(976,522)" d="m0 0 1 2 3 1v19l-2 7-2 2-1-3z" fill="#202128"/>
<path transform="translate(880,1007)" d="m0 0h18l-3 6-4 2h-6l-5-6z" fill="#A8A9AC"/>
<path transform="translate(763,527)" d="m0 0 3 1 1 11-3 1-1 3h-11v-5h10v-10z" fill="#17161C"/>
<path transform="translate(857,996)" d="m0 0h6l4 3h3l2-2v10l-17-6 1-4z" fill="#A5A6A9"/>
<path transform="translate(1439,1046)" d="m0 0 3 1-2 4-6 9-1 2v15l2 6-1 2-4-1-1-13 2-11 5-10z" fill="#2F3642"/>
<path transform="translate(679,1037)" d="m0 0 26 1v3l-3 1h-22l-5-1 1-3z" fill="#A7A8AA"/>
<path transform="translate(1032,522)" d="m0 0h28l-1 4-11 1h-3l-1-1-12-1z" fill="#040406"/>
<path transform="translate(1302,1036)" d="m0 0h1l1 43 4 5v2h-33v-1l26-1 1-3-1-6z" fill="#BCBCBE"/>
<path transform="translate(747,996)" d="m0 0 7 1 8 4v5l-4 1-5-3-7-2-1-4z" fill="#A3A4A8"/>
<path transform="translate(953,827)" d="m0 0h7l2 8h-2l-1-2-8-1-7 3-5 6-2 3 1-6 4-6 4-3z" fill="#F3F0F7"/>
<path transform="translate(311,938)" d="m0 0h3v29l-1 10h-1l-1-8z" fill="#F4F6F7"/>
<path transform="translate(704,403)" d="m0 0 3 3-2 4-6 3-6-1-5-4v-3l5 1h8z" fill="#111116"/>
<path transform="translate(197,972)" d="m0 0 2 3-2 6-9 16-7 6-4-1 8-6 8-16z" fill="#E1E2E5"/>
<path transform="translate(1304,1022)" d="m0 0h1l1 31v18l1 9 4 5-4-1-3-3z" fill="#1D1C22"/>
<path transform="translate(1013,574)" d="m0 0h16l7 1 1 2-5 1h-19l-5-1 1-2z" fill="#F4F6F7"/>
<path transform="translate(1535,594)" d="m0 0 5 5 2 5v10l-3-4-1 6h-1l-1-11-3-5z" fill="#C7C6C9"/>
<path transform="translate(0,614)" d="m0 0 3 1 3 6v8l-1 2-5 1z" fill="#F4F6F7"/>
<path transform="translate(880,563)" d="m0 0 9 1 6 1h19l2 2-2 1-21 1-6-3-7-2z" fill="#F3F0F7"/>
<path transform="translate(920,550)" d="m0 0 3 3h10l4-3v4l4 1v3h-5v-2h-2v2h-10l-4-5z" fill="#0C0D11"/>
<path transform="translate(763,827)" d="m0 0 12 1 3 3 1 4-3-2-9-1 1 5 2 2-1 3-5-7-2-7z" fill="#F3F0F7"/>
<path transform="translate(723,534)" d="m0 0 5 1 3 3v4h-13l1-5z" fill="#D7D9DC"/>
<path transform="translate(560,534)" d="m0 0 5 1 2 2v5h-12v-5z" fill="#DDDEE0"/>
<path transform="translate(1311,849)" d="m0 0 2 1 43 1v1l-42 1-6 4-1 3h-2v-6z" fill="#2B343B"/>
<path transform="translate(1434,577)" d="m0 0 10 1-2 4-2 5-5-1-3-3 1-5z" fill="#8A8B98"/>
<path transform="translate(780,998)" d="m0 0 4 2v9l-3 5-1 1h-6l-2-2v-9h1l1 7 5-1 2-3v-6z" fill="#BFBEC2"/>
<path transform="translate(903,534)" d="m0 0 5 2 1 1v5h-11l-1-4z" fill="#DEE0E2"/>
<path transform="translate(787,386)" d="m0 0 2 3 6 10v2h-6l-6-12 4-1z" fill="#13131A"/>
<path transform="translate(1042,527)" d="m0 0 3 1-1 28 4 2h-6z" fill="#4A4F5D"/>
<path transform="translate(676,537)" d="m0 0 3 1 1 2v9l-1 7 3 2h-6z" fill="#212329"/>
<path transform="translate(687,825)" d="m0 0h9l1 2h-2l-1 3-4 1-4-1v2l-3-1v-2l-4-2z" fill="#F3F0F7"/>
<path transform="translate(808,378)" d="m0 0 6 1 2 2v4h-12l-1-2z" fill="#E9EBEC"/>
<path transform="translate(671,839)" d="m0 0 6 1 2 2v4h-12l1-5z" fill="#D9DBDD"/>
<path transform="translate(740,829)" d="m0 0h6v7l-4 3 2-6-10 2-3 5-1-2 2-7z" fill="#F3F0F7"/>
<path transform="translate(588,839)" d="m0 0 6 1 1 1v5h-12l1-4z" fill="#D8DADD"/>
<path transform="translate(891,378)" d="m0 0 6 1 2 2v4h-12l1-5z" fill="#E8EAEB"/>
<path transform="translate(892,839)" d="m0 0 6 1 3 5-1 1h-12l1-4z" fill="#D5D5D7"/>
<path transform="translate(876,530)" d="m0 0h6l4 4v5l-2-3-2-2-1 1-9 1-3 2v-5z" fill="#121318"/>
<path transform="translate(1477,429)" d="m0 0 6 1 1 6-2 2-7-1v-6z" fill="#607291"/>
<path transform="translate(1333,625)" d="m0 0m-12 0h11l7 2v1h-31v-2z" fill="#464265"/>
<path transform="translate(617,553)" d="m0 0h7l-2 4-2 1h-10l-2-1v7h-1v-8l2-2z" fill="#111217"/>
<path transform="translate(885,996)" d="m0 0h6l3 3v3h-14l3-5z" fill="#A3A3A7"/>
<path transform="translate(908,826)" d="m0 0h8l-1 4-6 4-5-2 1-4z" fill="#F3F1F7"/>
<path transform="translate(1531,1041)" d="m0 0 8 8 5-1v9l-7-6-6-3z" fill="#313744"/>
<path transform="translate(721,996)" d="m0 0h6l3 2v4h-13l2-4z" fill="#A1A2A6"/>
<path transform="translate(1442,581)" d="m0 0 2 2-1 5-7 3-5 6-3 8-1 8h-1v-10l5-10 6-6h3z" fill="#C3C3C5"/>
<path transform="translate(1485,497)" d="m0 0h5l1 1v6l-2 2-5-1-2-5z" fill="#5C6889"/>
<path transform="translate(977,374)" d="m0 0 17 1-5 4-7 1-7-4z" fill="#F3F0F7"/>
<path transform="translate(688,394)" d="m0 0 6 1v2h8v3l-2 2h-7l-5-5z" fill="#0D0D13"/>
<path transform="translate(927,530)" d="m0 0 6 1 4 2 1 2v14h-1v-12l-6-2h-8z" fill="#09090D"/>
<path transform="translate(860,1008)" d="m0 0 6 1 1 3-3 3h-6l-3-3 3-3z" fill="#BABABC"/>
<path transform="translate(1502,417)" d="m0 0h5l2 2-1 5-1 1-7-1v-5z" fill="#7B8599"/>
<path transform="translate(1547,1016)" d="m0 0h1v50l-3-1-1-6 2 2z" fill="#6F778F"/>
<path transform="translate(1443,429)" d="m0 0 5 1 1 1v5l-2 2-5-1-1-1v-5z" fill="#7F899B"/>
<path transform="translate(1451,417)" d="m0 0h5l2 2-1 5-1 1h-5l-2-2 1-5z" fill="#627291"/>
<path transform="translate(1434,417)" d="m0 0h5l2 3-1 4-1 1-7-1v-5z" fill="#7D879A"/>
<path transform="translate(1473,958)" d="m0 0h6l1 1v6l-1 1h-6l-1-7z" fill="#7E8395"/>
<path transform="translate(1306,873)" d="m0 0h1l1 47 2 5-4-2z" fill="#2B343B"/>
<path transform="translate(855,530)" d="m0 0 3 1 1 2v28h-1l-1-25h-2l-3-4z" fill="#3D3D54"/>
<path transform="translate(1451,497)" d="m0 0 6 1 1 5-2 2h-6l-1-6z" fill="#848D9D"/>
<path transform="translate(1485,417)" d="m0 0h5l2 3-1 4-1 1h-5l-2-2 1-5z" fill="#7E899B"/>
<path transform="translate(919,70)" d="m0 0 19 1v1l-13 1-3 1v12l-3 1z" fill="#F4F6F7"/>
<path transform="translate(1494,429)" d="m0 0 5 1 1 5-2 3-5-1-1-1v-5z" fill="#5F7191"/>
<path transform="translate(1459,430)" d="m0 0h6l1 1v6l-1 1h-5l-2-2v-5z" fill="#7C879B"/>
<path transform="translate(746,1008)" d="m0 0h7l2 1-1 5-1 1h-6l-2-1v-5z" fill="#BCBCBF"/>
<path transform="translate(803 1e3)" d="m0 0 5 1 1 5-2 3h-5l-1-7z" fill="#A7A8AA"/>
<path transform="translate(1503,882)" d="m0 0 5 3v2l3 1-3 4h-3l-5-5 1-4z" fill="#403C5D"/>
<path transform="translate(66,535)" d="m0 0h1v16l-5 10-1-2 1-10 3-4z" fill="#F3F0F7"/>
<path transform="translate(855,536)" d="m0 0h2l1 9v13h-3z" fill="#1D1C22"/>
<path transform="translate(811,571)" d="m0 0h4v2l-4 1 4 4h-15l3-2 2-1-1-3z" fill="#F4F6F7"/>
<path transform="translate(1456,958)" d="m0 0 7 1 1 5-3 2-4-1-2-2z" fill="#707991"/>
<path transform="translate(1440,958)" d="m0 0 6 1v5l-2 2h-5l-1-1v-5z" fill="#5B6585"/>
<path transform="translate(1512,429)" d="m0 0 4 2v6l-6 1-2-5z" fill="#7D869A"/>
<path transform="translate(287,967)" d="m0 0 3 1v34h-1z" fill="#F3F5F7"/>
<path transform="translate(1453,576)" d="m0 0h3v2l4 1-8 4-5 5v-6l5-5z" fill="#C3C3C5"/>
<path transform="translate(717,1007)" d="m0 0h18l2 5-7 1v-2l-4 1v-2l3-1-11-1-1 2z" fill="#9E9EA5"/>
<path transform="translate(1515,971)" d="m0 0 7 1v6l-5 1-3-2v-5z" fill="#717C94"/>
<path transform="translate(1490,958)" d="m0 0 7 1v6l-5 1-3-2v-5z" fill="#717A92"/>
<path transform="translate(1436,497)" d="m0 0 4 1 1 5-1 2-7-1v-5z" fill="#848D9E"/>
<path transform="translate(1543,924)" d="m0 0h2l1 6 3 4v2l-4-1-4-4-3-2v-2z" fill="#DEDFE1"/>
<path transform="translate(1491,878)" d="m0 0 5 1 1 5-2 2-5-1-1-5z" fill="#7B869B"/>
<path transform="translate(1448,971)" d="m0 0h6v6l-1 1h-6l-1-5z" fill="#7A8196"/>
<path transform="translate(1470,883)" d="m0 0 4 2v2l2 1-4 3-7-2 1-4z" fill="#403C5E"/>
<path transform="translate(644,842)" d="m0 0 3 1 1 11-5 1v-12z" fill="#CECDCF"/>
<path transform="translate(1509,510)" d="m0 0 7 1v6l-5 1-2-2z" fill="#9499A5"/>
<path transform="translate(832,999)" d="m0 0 4 1v7l-1 5-3-1-1-7z" fill="#A7A8AA"/>
<path transform="translate(1467,890)" d="m0 0 4 2v5l-1 1h-5l-2-4z" fill="#7D899D"/>
<path transform="translate(1013,534)" d="m0 0 2 4 3 11-2 3-3-5-1-12z" fill="#2E353F"/>
<path transform="translate(643,398)" d="m0 0h11v3h-22v-1z" fill="#010102"/>
<path transform="translate(1440,1039)" d="m0 0 5 1 3 2-3 5-5-2-2-4z" fill="#5F7191"/>
<path transform="translate(1498,971)" d="m0 0h6l1 1v5l-1 1h-5l-1-1z" fill="#798196"/>
<path transform="translate(1481,971)" d="m0 0 7 1v6h-6l-1-1z" fill="#7B8498"/>
<path transform="translate(61,499)" d="m0 0h1l3 22v6l-2-4-2-9z" fill="#F3F0F7"/>
<path transform="translate(1501,497)" d="m0 0 7 1v6h-6l-1-1z" fill="#9196A1"/>
<path transform="translate(271,970)" d="m0 0h2l-2 4-12 11-5 5-2-1z" fill="#F3F5F7"/>
<path transform="translate(1450,890)" d="m0 0 4 2v5l-1 1h-5l-1-5z" fill="#7E899B"/>
<path transform="translate(511,566)" d="m0 0 3 2 10 2 2 2-1 1-10-1-4-2z" fill="#F3F0F7"/>
<path transform="translate(1465,971)" d="m0 0h6v6l-5 1-2-2z" fill="#798398"/>
<path transform="translate(1516,891)" d="m0 0h5l1 5-1 2h-5l-1-1v-5z" fill="#7B869B"/>
<path transform="translate(558,850)" d="m0 0 3 1 2 4-1 4-2 1-3-3-1-5z" fill="#CECDCF"/>
<path transform="translate(1468,497)" d="m0 0h5l1 5-1 2h-5l-1-1v-5z" fill="#A0A4AB"/>
<path transform="translate(747,996)" d="m0 0 7 1 4 4-8-1 2 2h-6l-1-4z" fill="#BDBCC0"/>
<path transform="translate(8,525)" d="m0 0 1 4-4 9-5-4v-2l5-3z" fill="#F3F0F7"/>
<path transform="translate(632,365)" d="m0 0h5v2h-3l-1 31h-1z" fill="#060709"/>
<path transform="translate(1431,1064)" d="m0 0h1l1 13 2 6-1 2-4-1v-10z" fill="#343949"/>
<path transform="translate(159,983)" d="m0 0 1 3-4 5-3 2h-10l-1-2 11-1z" fill="#D6D9DC"/>
<path transform="translate(172,975)" d="m0 0 1 3-6 11-1 6h-1v-8l5-10z" fill="#E9EBEC"/>
<path transform="translate(1483,891)" d="m0 0 5 1v5l-1 1h-5v-6z" fill="#828D9E"/>
<path transform="translate(1473,561)" d="m0 0 2 1-7 7-2 3-9-1v-1l7-1z" fill="#BFBFC2"/>
<path transform="translate(678,79)" d="m0 0h2l3 12h-2l-2 2-1-6z" fill="#EAEBED"/>
<path transform="translate(1509,958)" d="m0 0 5 2-1 5h-5l-1-5z" fill="#818697"/>
<path transform="translate(809,538)" d="m0 0 6 2 1 4-4 1-6-2v-3h3z" fill="#202027"/>
<path transform="translate(578,534)" d="m0 0 4 2 2 5-4 2h-2l-1-7z" fill="#282732"/>
<path transform="translate(1496,510)" d="m0 0 3 1-1 6-5-1-1-4z" fill="#B2B3B5"/>
<path transform="translate(1445,510)" d="m0 0 3 1v5l-4 1-3-2v-4z" fill="#A6A7AC"/>
<path transform="translate(1459,879)" d="m0 0 4 1-1 5h-6l1-5z" fill="#8890A0"/>
<path transform="translate(1015,825)" d="m0 0h23v1h-16v5h-3v-4z" fill="#C6C6C8"/>
<path transform="translate(1479,510)" d="m0 0 3 2-1 5-5-1-1-4z" fill="#AFB0B2"/>
<path transform="translate(937,368)" d="m0 0 5 1v6h-3l-4 1z" fill="#121217"/>
<path transform="translate(1462,510)" d="m0 0 4 2v4l-5 1-2-2 1-4z" fill="#9EA1A7"/>
<path transform="translate(460,403)" d="m0 0h15l-3 2-10 2z" fill="#F3F0F7"/>
<path transform="translate(835,144)" d="m0 0 16 4 1 2-9-1-8-4z" fill="#F3F0F7"/>
<path transform="translate(1434,577)" d="m0 0h5l-4 2 1 5 2 1 1-3h1v5l-5-1-3-3 1-5z" fill="#687591"/>
<path transform="translate(703,566)" d="m0 0 11 2-3 3-7-1-2-3z" fill="#F3F0F7"/>
<path transform="translate(842,533)" d="m0 0 8 1v1l-7 2-3 3-3-3z" fill="#202027"/>
<path transform="translate(1069,401)" d="m0 0 12 1-2 2-12 1z" fill="#F4F6F7"/>
<path transform="translate(1531,1041)" d="m0 0 5 5 1 4-5-1-1-1z" fill="#323A47"/>
<path transform="translate(1311,849)" d="m0 0 2 1-5 7-1 3h-2v-6z" fill="#2E323B"/>
<path transform="translate(1470,418)" d="m0 0 3 1v5h-5l-1-5z" fill="#AEAFB1"/>
<path transform="translate(1304,1071)" d="m0 0h2l1 9 4 5-4-1-3-3z" fill="#212129"/>
<path transform="translate(826,563)" d="m0 0 4 2-1 4-1-1h-8l2-4z" fill="#F4F6F7"/>
<path transform="translate(977,522)" d="m0 0h4v22h-1l-1-19-2-1z" fill="#010102"/>
<path transform="translate(1477,431)" d="m0 0 5 1-1 4-3 1-2-1z" fill="#A7A8AA"/>
<path transform="translate(561,834)" d="m0 0 3 2-2 4-5-1 1-4z" fill="#CECDCF"/>
<path transform="translate(1446,588)" d="m0 0 1 2-7 8-5 5 1-4 5-5z" fill="#A7ABB2"/>
<path transform="translate(1486,498)" d="m0 0 4 1v5h-5v-5z" fill="#A7A8AA"/>
<path transform="translate(1162,450)" d="m0 0 1 4-6 7-1-3 4-7z" fill="#F3F0F7"/>
<path transform="translate(186,994)" d="m0 0 2 1-2 4-5 4-4-1 8-6z" fill="#D8DADC"/>
<path transform="translate(234,976)" d="m0 0 1 2-1 6 4 6-1 2-5-6v-7z" fill="#E4E5E7"/>
<path transform="translate(1145,555)" d="m0 0 5 2 5 4-1 2-9-5z" fill="#F3F0F7"/>
<path transform="translate(542,552)" d="m0 0h2l3 6h-7l1-4z" fill="#14151C"/>
<path transform="translate(852,551)" d="m0 0 2 1v8l-1-2-2-1-5-2 4-2z" fill="#2E2F38"/>
<path transform="translate(1453,418)" d="m0 0 3 1-1 5-4-1v-4z" fill="#A7A8AA"/>
<path transform="translate(848 1e3)" d="m0 0 4 1v3l2 1h-4l-1 3-2-7z" fill="#A8A9AB"/>
<path transform="translate(1441,959)" d="m0 0h5v5l-6-1z" fill="#9599A3"/>
<path transform="translate(1475,879)" d="m0 0 4 1-2 5-4-1v-4z" fill="#ABACAE"/>
<path transform="translate(1495,430)" d="m0 0 3 1v5h-4l-1-3z" fill="#ABACAE"/>
</svg>
